<svg xmlns="http://www.w3.org/2000/svg" width="70.867" height="75.316">
  <path d="M0 0v4.428h17.719v4.43h17.715v8.859h3.052v-2.608c0-2.164.352-4.164 1.094-5.957l.01-.023.012-.024c.776-1.732 1.817-3.242 3.115-4.478l.014-.014.015-.013a14.502 14.502 0 0 1 4.643-2.827l.01-.003.01-.004c1.802-.662 3.725-.989 5.73-.989 1.954 0 3.827.33 5.58.994 1.79.658 3.383 1.604 4.73 2.829 1.362 1.238 2.42 2.769 3.15 4.523.804 1.8 1.19 3.812 1.19 5.986v20.323h3.078V0Zm67.79 35.432h-3.544V54.23c0 2.876-.753 5.111-2.248 6.97l-.867 1.075 4.771 6.294-2.37 1.784-4.882-6.47-1.228.44a9.494 9.494 0 0 1-2.024.468l-.064.01-.064.012a10.82 10.82 0 0 1-2.131.205c-1.627 0-3.126-.24-4.526-.704a10.88 10.88 0 0 1-3.445-2.091c-.94-.948-1.712-2.072-2.316-3.412-.534-1.297-.823-2.807-.823-4.58v-1.083h-3.543v1.082c0 2.165.352 4.165 1.094 5.958l.01.023.012.023c.773 1.726 1.805 3.249 3.084 4.528l.029.031.031.027a14.502 14.502 0 0 0 4.643 2.826l.035.012.033.012c1.79.597 3.695.89 5.682.89.943 0 1.865-.091 2.765-.267.484-.063.924-.214 1.385-.324l5.546 7.347 8.032-6.055-5.41-7.138c1.449-2.289 2.332-4.91 2.332-7.893zM38.485 53.148V35.432H0v4.431h17.719v4.428h17.715v8.857zm-3.052 0H0v4.43h17.719v4.428h17.715Zm-17.715 8.858H0v4.432h17.719zm0-17.715H0v4.43h17.719zm20.767-8.86h3.543V17.718h-3.543zm3.543-17.714h3.737v-2.528c0-2.14.66-4.098 2.107-5.396l.002-.002c1.405-1.263 3.268-1.893 5.264-1.893 1.978 0 3.814.632 5.174 1.899 1.486 1.285 2.197 3.249 2.197 5.392v20.243h3.736V15.109c0-1.766-.306-3.264-.885-4.554l-.01-.024-.01-.023c-.548-1.326-1.298-2.4-2.275-3.287-.996-.906-2.172-1.612-3.578-2.127l-.01-.004-.01-.004c-1.338-.508-2.766-.764-4.33-.764-1.618 0-3.107.26-4.501.77a10.881 10.881 0 0 0-3.487 2.115c-.93.889-1.693 1.982-2.299 3.322-.533 1.297-.822 2.807-.822 4.58zm18.48 17.715h-3.542v19.197c0 1.464-.359 2.253-1.012 2.842-.656.586-1.488.908-2.816.908-1.306 0-2.174-.322-2.889-.914-.59-.575-.941-1.38-.941-2.836v-1.48h-3.543v1.48c0 2.143.656 4.104 2.074 5.447l.035.033.035.03c1.411 1.199 3.251 1.783 5.229 1.783 1.977 0 3.81-.587 5.18-1.813l.001-.002h.002c1.48-1.33 2.188-3.317 2.188-5.478V35.432ZM45.767 53.148V35.432H42.03v17.716zm0-17.716h3.543V17.717h-3.543Zm3.543-17.715h3.841v17.715h3.817V15.189c0-1.465-.354-2.2-.977-2.73l-.035-.03-.035-.033c-.664-.629-1.47-.955-2.781-.955-1.31 0-2.168.33-2.897.985l-.002.002-.002.002c-.576.515-.93 1.276-.93 2.76v2.527zm3.841 17.715H49.31v17.716h3.841zM35.434 17.717H0v4.43h17.719v4.427h17.715Zm-17.715 8.857H0v4.43h17.719zm0-17.717H0v4.432h17.719z"/>
</svg>
